<?xml version="1.0" encoding="UTF-8" standalone="no"?>
<svg
   width="99.942711"
   zoomAndPan="magnify"
   viewBox="0 0 74.957033 575.6992"
   height="767.59894"
   preserveAspectRatio="xMidYMid"
   version="1.0"
   id="svg77"
   xmlns="http://www.w3.org/2000/svg"
   xmlns:svg="http://www.w3.org/2000/svg">
  <defs
     id="defs31">
    <filter
       x="0"
       y="0"
       width="1"
       height="1"
       id="bba8ef25cf">
      <feColorMatrix
         values="0 0 0 0 1 0 0 0 0 1 0 0 0 0 1 0 0 0 1 0"
         color-interpolation-filters="sRGB"
         id="feColorMatrix2" />
    </filter>
    <clipPath
       id="794162ddbf">
      <path
         d="M 0,0.140625 H 1024 V 575.85937 H 0 Z m 0,0"
         clip-rule="nonzero"
         id="path5" />
    </clipPath>
    <clipPath
       id="dbdfb07d6c">
      <path
         d="m 494,0.140625 h 38 V 118 h -38 z m 0,0"
         clip-rule="nonzero"
         id="path19" />
    </clipPath>
    <clipPath
       id="005f198a79">
      <path
         d="m 494,0.140625 h 38 V 119 h -38 z m 0,0"
         clip-rule="nonzero"
         id="path22" />
    </clipPath>
    <clipPath
       id="a5a954d48a">
      <path
         d="m 474.39062,349 h 74.96485 v 226.85937 h -74.96485 z m 0,0"
         clip-rule="nonzero"
         id="path25" />
    </clipPath>
    <clipPath
       id="879cf8ac2e">
      <path
         d="m 474.39062,348 h 74.96485 v 227.85937 h -74.96485 z m 0,0"
         clip-rule="nonzero"
         id="path28" />
    </clipPath>
  </defs>
  <g
     clip-path="url(#794162ddbf)"
     id="g37"
     transform="translate(-474.39844,-0.140625)">
    <path
       fill="#ffffff"
       d="M 0,0.140625 H 1024 V 575.85937 H 0 Z m 0,0"
       fill-opacity="1"
       fill-rule="nonzero"
       id="path33" />
    <path
       fill="#ffffff"
       d="M 0,0.140625 H 1024 V 575.85937 H 0 Z m 0,0"
       fill-opacity="1"
       fill-rule="nonzero"
       id="path35" />
  </g>
  <path
     fill="#ffffff"
     d="m 20.382812,195.28515 h 15.164061 v 6.97266 l -1.828121,4.49218 -1.82422,4.49219 -0.67969,2.86328 v 0.67969 h 16.76172 l -0.46094,-1.20703 c -0.2539,-0.66406 -0.79687,-2.69531 -1.19922,-4.51563 -0.40625,-1.8164 -1.20703,-4.02343 -1.78125,-4.90625 l -1.042969,-1.59765 v -7.27344 h 13.71875 V 120.02734 H 20.382812 Z m 0,0"
     fill-opacity="1"
     fill-rule="nonzero"
     id="path49" />
  <path
     fill="#07215f"
     d="m 20.343752,195.33593 h 15.199221 v 6.98828 l -1.83204,4.5 -1.828121,4.50391 -0.683589,2.86328 v 0.6836 h 16.79687 l -0.460941,-1.21093 c -0.257809,-0.66407 -0.79687,-2.69922 -1.20312,-4.52344 -0.40625,-1.82031 -1.21094,-4.03125 -1.78516,-4.91406 l -1.04687,-1.60157 v -7.28907 h 13.75 v -77.42967 h -36.90625 z m 1.449221,-1.44531 v -62.23437 h 23.8789 v 62.23437 z m 12.308589,19.35547 c 0.008,-0.0977 0.65625,-2.2461 1.449221,-4.76953 l 1.4375,-4.58594 v -3.13281 c 0,-1.72266 0.19922,-3.64844 0.4414,-4.27735 l 0.4375,-1.14453 h 2.73829 v 6.77735 l 1.375,2.94531 c 0.757809,1.61719 1.585929,4.16406 1.84375,5.65625 l 0.464839,2.71094 h -5.09766 c -2.80468,0 -5.09375,-0.082 -5.08984,-0.17969 z m 13.019531,-19.35547 v -62.23437 h 1.445309 v 62.23437 z m 4.33984,0 v -62.23437 h 2.171879 v 62.23437 z m 0,0"
     fill-opacity="1"
     fill-rule="nonzero"
     id="path51" />
  <g
     clip-path="url(#dbdfb07d6c)"
     id="g55"
     transform="translate(-474.39844,-0.140625)">
    <path
       fill="#ffffff"
       d="m 494.8125,117.84766 h 36.77344 l -0.44532,-2.9961 c -0.45703,-3.08593 -4.52343,-22.292966 -6.48437,-30.63281 l -1.05078,-4.476562 V 55.390625 l -2.86328,-8.089844 -2.85938,-8.089843 V 19.796875 h -2.14844 V 0.316406 h -4.28906 v 20.203125 h -1.43359 v 16.402344 l -3.57422,8.777344 -3.57813,8.773437 v 23.082032 l -1.77343,8.816406 c -0.97657,4.851562 -2.61328,12.714844 -3.63282,17.476566 -1.02343,4.76172 -2.03906,9.875 -2.2539,11.36328 z m 0,0"
       fill-opacity="1"
       fill-rule="nonzero"
       id="path53" />
  </g>
  <g
     clip-path="url(#005f198a79)"
     id="g59"
     transform="translate(-474.39844,-0.140625)">
    <path
       fill="#07215f"
       d="m 494.75,118.09375 h 36.90625 l -0.46094,-3.07812 c -0.46094,-3.09375 -4.53906,-22.35938 -6.5039,-30.722661 l -1.05469,-4.488281 V 55.378906 l -2.8711,-8.113281 -2.86718,-8.117187 v -19.46875 h -2.15235 V 0.140625 h -4.30468 v 20.261719 h -1.4375 v 16.453125 l -7.17188,17.601562 v 23.152344 l -1.78125,8.84375 c -0.98047,4.863281 -2.62109,12.753906 -3.64453,17.527345 -1.02734,4.77734 -2.04297,9.90625 -2.26172,11.39844 z m 1.43359,-1.44922 0.41797,-2.35156 c 0.95703,-5.39063 6.19531,-30.003908 6.62891,-31.144532 l 0.46875,-1.238282 H 515 l 0.36328,1.628906 c 0.19922,0.894532 1.17188,8.378907 2.16406,16.628908 0.99219,8.25391 1.80469,15.33594 1.80469,15.73828 v 0.73828 z m 8.08203,-36.906249 V 55.136719 h 12.91407 V 79.738281 Z M 504.98437,53.6875 V 53.125 c 0,-0.945312 5.05079,-12.710938 5.89844,-13.742188 l 0.79297,-0.964843 3.71094,0.4375 1.94922,5.789062 c 1.07422,3.183594 1.96484,6.519531 1.97656,7.417969 l 0.0195,1.625 z m 6.45704,-16.640625 V 21.125 h 4.30468 V 37.046875 Z M 512.875,19.679688 V 2.3125 h 1.43359 v 17.367188 z m 3.47266,62.230468 h 1.36718 l 1.90625,12.484375 c 1.05078,6.863279 2.07813,13.785159 2.28516,15.374999 0.20312,1.59375 0.54297,3.78906 0.75,4.88672 l 0.375,1.98828 h -2.00781 l -1.94532,-15.375 c -1.07421,-8.460936 -2.125,-16.273436 -2.33984,-17.367186 z m 2.98437,-2.171875 V 55.136719 h 1.43359 v 24.601562 z m 0.69141,2.679688 0.37109,-0.375 c 0.70313,-0.710938 0.95703,0.285156 3.92578,15.425781 1.64063,8.35547 3.14844,16.08984 3.35547,17.1875 l 0.37891,1.98828 H 526.75 l -1.21875,-6.69531 c -0.67188,-3.67969 -1.82813,-9.62109 -2.57031,-13.203126 -0.74219,-3.582032 -1.70703,-8.273438 -2.14453,-10.421875 z m 0,0"
       fill-opacity="1"
       fill-rule="nonzero"
       id="path57" />
  </g>
  <g
     clip-path="url(#a5a954d48a)"
     id="g63"
     transform="translate(-474.39844,-0.140625)">
    <path
       fill="#ffffff"
       d="m 486.58203,437.55078 v 89.05859 c -3.94141,3.9375 -7.88672,7.875 -11.83203,11.8125 v 9.58204 h 12.03125 c 0.0898,1.71484 -1.98047,4.39843 -0.0664,5.30859 1.34375,0.63281 2.85547,0.44531 4.28516,0.48437 -1.12109,2.9336 -3.35938,5.59375 -3.71875,8.71485 -0.61328,4.44531 -2.05078,8.75781 -3.47266,12.98828 h 38.97266 c -0.23438,-3.63281 -1.5625,-7.1875 -2.02344,-10.71875 1.70313,-1.76563 1.66797,-3.625 0.21485,-5.56641 -0.6836,-1.74218 -1.8711,-3.45312 -1.66797,-5.42187 0.70703,-0.30078 3.25,0.71094 2.48437,-0.8125 -0.63281,-1.67188 -1.32422,-3.31641 -1.98047,-4.97656 h 7.33985 c -0.0664,1.72656 -1.1836,4.64453 -0.59766,5.64062 2,-0.57422 4.55859,-1.70312 2.83594,1.41797 -0.9336,2.79297 -2.41406,5.34375 -3.75781,7.93359 1.86328,1.28907 1.16406,3.20703 0.6289,5.08203 -0.49609,2.46094 -1.24219,4.90235 -1.3789,7.42188 h 20.84375 c -1.31641,-4.34375 -2.62891,-8.84766 -2.91407,-13.35547 -1.39453,-2.67578 -2.79297,-5.35547 -4.18359,-8.03125 2.21484,-0.67578 2.78516,-1.89453 1.41016,-3.80469 -0.53907,-0.86328 -0.91407,-2.41015 0.61328,-2.16015 2.85547,-0.23828 5.72656,-0.11328 8.58984,-0.14453 -0.1875,-2.73047 0.37109,-5.82813 -0.26953,-8.33204 -2.61719,-2.26953 -5.39063,-4.43359 -7.91797,-6.76171 -1.61719,-4.29688 -0.53125,-9 -0.84375,-13.49219 -0.008,-56.80469 -0.0156,-113.60938 -0.0195,-170.41406 h -53.60547 z m 14.92188,110.45703 h 6.25 c -0.5625,1.92969 -1.12891,3.86328 -1.71485,5.78906 1.76563,-0.48046 2.59766,0.23047 1.95313,1.95704 -0.60938,2.55859 -1.66407,5.10937 -2.35938,7.53515 2.08985,-0.48828 2.39453,0.21094 1.67969,2.41016 -0.46484,3.07812 -1.24219,6.09375 -2.08203,9.08203 -2.55078,0.75 -1.89844,-2.78906 -2.67969,-4.41016 -1.38281,-3.17187 -0.004,-6.73437 -0.79297,-9.92187 -0.91015,-2.04297 -1.82422,-4.08594 -2.73828,-6.12891 1.26953,-0.82812 4.27734,-0.6914 3.46875,-2.85156 -0.30078,-1.25 -1.01562,-2.32422 -1.56641,-3.46094 z m 0,0"
       fill-opacity="1"
       fill-rule="nonzero"
       id="path61" />
  </g>
  <g
     clip-path="url(#879cf8ac2e)"
     id="g67"
     transform="translate(-474.39844,-0.140625)">
    <path
       fill="#07215f"
       d="m 474.40234,548.33984 h 11.94141 l -0.47656,2.26172 -0.47657,2.25781 0.94532,0.625 c 0.51953,0.34375 1.65625,0.62891 2.52343,0.63282 l 1.57422,0.0117 -3.5,7.1875 v 1.39453 c 0,1.1914 -2.08593,8.9414 -3.26172,12.125 l -0.37109,1.0039 h 39.83203 l -0.0117,-0.90625 c -0.008,-0.49609 -0.47656,-2.94922 -1.04297,-5.44531 l -1.02734,-4.53906 1.6875,-2.80469 -1.54687,-3.30469 c -0.84766,-1.8164 -1.54297,-3.62109 -1.54297,-4.00781 v -0.70312 h 1.39453 c 1.66797,0 1.65625,0.10546 0.33984,-3.16797 l -1.05469,-2.6211 h 6.40625 l -0.95312,5.85157 1.88672,-0.49219 1.88281,-0.49219 -0.5,1.72656 c -0.27344,0.94922 -1.25,3.15625 -2.16797,4.90235 l -1.67187,3.17578 0.71093,0.89453 0.71485,0.89453 -1.04688,4.61328 c -0.57422,2.53906 -1.05078,5.02344 -1.05859,5.51953 l -0.008,0.90625 h 21.67187 l -0.5,-1.6289 c -1.20312,-3.91407 -2.35937,-8.98438 -2.36719,-10.36719 l -0.0117,-1.5 -2.11329,-4.05469 -2.11328,-4.05859 1.21094,-0.70313 1.21484,-0.70703 -0.83984,-1.91015 c -0.46094,-1.05469 -0.83984,-2.0625 -0.83984,-2.24219 0,-0.17969 2.19531,-0.32813 4.875,-0.32813 h 4.87109 v -8.63672 l -8.20312,-6.92187 -0.41407,-1.44531 -0.41406,-1.44922 -0.008,-90.63281 -0.0117,-90.63672 h -54.29688 v 177.8125 l -5.91796,5.90625 -5.91797,5.90234 v 10.10156 z m 2.08594,-2.17187 v -8.35156 l 4.41797,-4.50782 c 2.42969,-2.48047 4.625,-4.50781 4.875,-4.50781 0.25,0 0.45312,0.58594 0.45312,1.29688 v 1.29687 l -6.26562,6.39063 v 8.38281 z m 4.875,0 v -7.72266 l 4.80469,-4.82031 c 2.64453,-2.65234 4.99219,-4.82422 5.22265,-4.82422 h 0.41407 l -0.0859,2.35156 c -0.0898,2.44141 -0.82813,8.15625 -1.61328,12.50782 l -0.45313,2.50781 z m 4.87109,28.22265 0.008,-0.90625 c 0.008,-0.49609 0.46093,-2.66406 1.01172,-4.82031 l 1.0039,-3.91406 0.67188,-0.42969 0.66797,-0.43359 4.61718,0.0977 4.61328,0.0977 0.4336,0.44922 0.43359,0.45312 h -9.98047 v 1.44532 h 10.44532 V 567.879 H 488.9375 l 0.85937,1.44531 h 11.0586 v 2.17187 h -13.22656 v 1.5586 l 2.26171,-0.12891 c 1.2461,-0.0703 4.21875,-0.0977 6.61329,-0.0547 l 4.35156,0.0703 v 1.44921 z m 1.39454,-21.94531 v -0.90625 c 0,-0.5 0.1914,-1.42578 0.42187,-2.05469 l 0.42188,-1.14453 h 10.83984 l 0.42187,1.14453 c 0.23438,0.62891 0.42579,1.56641 0.42579,2.08594 v 0.94141 l -6.26563,-0.0312 z m 0,-114.10156 v -73.08594 h 9.05078 V 350.0625 h 19.49218 v 15.19531 h 11.13672 v 73.08594 h -2.08984 v -71.63672 h -1.39063 v 71.63672 z m 0.67578,123.74219 2.10937,-4.33985 2.10547,-4.34375 h 4.05859 l 1.44141,4.00782 c 0.79297,2.20312 1.44141,4.15625 1.44141,4.33984 0,0.18359 -2.50782,0.33594 -5.57813,0.33594 z m 3.49218,-16.82422 c -0.008,-0.4961 0.6875,-7.01172 1.53907,-14.47266 l 1.54297,-13.57031 0.49609,0.91797 c 0.53906,1 3.57812,14.98437 4.74609,21.83203 0.40235,2.35937 0.73438,4.72266 0.73438,5.24609 v 0.95313 h -9.05078 z m 3.48829,-37.42969 v -51.39844 h 17.40234 v 89.73047 h -8.17969 l -4.60937,-19.16797 z m 4.20703,46.65625 1.72656,-0.68359 1.72266,-0.6836 v -0.99218 c 0,-0.54688 -0.32422,-1.6211 -0.71875,-2.39454 l -0.71875,-1.39843 h 5.77734 l -0.47266,1.6289 c -0.26172,0.89453 -0.64843,2.19922 -0.85937,2.89453 l -0.38281,1.26563 h 2.25 l -0.0508,0.90625 c -0.0273,0.49609 -0.63671,2.61328 -1.34765,4.70312 l -1.30078,3.80079 0.48047,0.082 c 0.26171,0.0469 0.7539,0.0351 1.09375,-0.0312 l 0.61718,-0.1211 -0.4375,2.75 c -0.23828,1.50782 -0.76562,3.96485 -1.17187,5.46094 l -0.73438,2.71094 h -1.0625 l -1.6875,-6.875 0.0937,-3.25391 0.0937,-3.25781 -1.45312,-3.25781 z m 7.6289,19.89844 v -1.21875 c 0,-0.67188 0.50782,-3.11328 1.13282,-5.42578 l 1.13671,-4.20703 h 8.86719 v 1.44531 h -7.65625 v 1.44922 h 8.35156 v 1.44531 h -9.74609 v 1.44922 h 10.44531 v 2.16797 h -10.44531 v 1.55859 l 5.57031,-0.23437 5.57422,-0.23829 v 1.8086 z m 0.51953,-12.30078 0.38672,-1.98828 c 0.21094,-1.09766 0.71094,-2.88672 1.11328,-3.98047 l 0.73047,-1.99219 h 6.83203 l 0.40625,1.26562 c 0.22266,0.69922 0.84766,2.48829 1.39063,3.98047 l 0.98828,2.71485 z m 0.26954,-10.27735 0.76171,-1.73437 0.76172,-1.73828 h 8.66016 l 0.42187,1.6289 c 0.23047,0.89453 0.42579,1.8711 0.42969,2.17188 l 0.008,0.54297 h -10.20703 l -0.41797,-0.4375 z m 18.16015,22.57813 1.1836,-4.88281 1.18359,-4.88672 6.22266,-0.0508 6.22265,-0.0547 -10.09375,0.53125 v 1.38672 h 10.44141 v 1.44531 h -11.13672 v 1.44922 h 11.83594 v 2.16797 h -12.53125 v 1.44922 H 542.625 v 1.44531 z m 2.00781,-23.35547 c -0.008,-0.29688 0.10157,-0.68359 0.25782,-1.19141 l 0.45703,-1.5039 h 7.51562 l 0.72266,1.40234 c 0.39453,0.76953 0.71875,1.73438 0.71875,2.14063 v 0.74609 l -4.625,-0.31641 c -3.95703,-0.27343 -5.02344,-0.3789 -5.04688,-1.27734 z m 0.61719,10.14844 c 0,-0.4961 0.69531,-2.44922 1.55469,-4.33985 l 1.56641,-3.4375 h 4.4414 l 1.78906,4.06641 c 0.98438,2.23828 1.79297,4.19141 1.79297,4.33984 0,0.15235 -2.50781,0.27735 -5.57031,0.27735 h -5.57031 l -0.008,-0.90625 z m 2.09375,-122.83594 v -73.08594 h 2.78516 V 350.0625 h 2.78515 v 88.28125 z m 0.66016,18.09375 h 4.91015 l -0.0547,35.27734 c -0.0312,19.39844 -0.17578,34.94922 -0.32422,34.55078 -0.14453,-0.39843 -1.13672,-4.95703 -2.19531,-10.1289 l -1.9336,-9.41016 -0.19922,-25.14453 z m 6.14062,77.33203 c 0.0352,-3.10547 2.21485,-1.08984 7.99219,4.32813 l 2.60938,2.44531 v 6.34375 h -8.32813 l -0.33203,-1.62891 c -1.21094,-5.91797 -1.96094,-9.625 -1.94141,-11.48828 z m 0,0"
       fill-opacity="1"
       fill-rule="nonzero"
       id="path65" />
  </g>
  <path
     fill="#ffffff"
     d="m 19.976562,197.66406 c -2.56641,10.09375 -5.37891,20.15234 -7.796879,30.26562 v 93.93361 c 1.82422,0.42577 5.02344,-1.19532 5.27735,1.58202 0.51172,1.51173 1.23047,2.99219 1.38672,4.59765 1.25781,0.64063 5.05859,-0.66797 4.2539,1.55078 -0.52734,2.32032 -0.74609,4.86329 -1.44922,7.05469 -2.55859,0.73828 -1.78515,3.76563 -2.37109,5.86328 0.76563,2 -2.78125,2.3711 -1.57422,3.88672 14.3125,-0.10156 28.64063,0.26172 42.941409,-0.35547 1.16797,-1.03125 -0.6875,-3.6875 -0.81641,-5.34765 -0.93359,-3.28125 -2.38281,-6.38672 -3.94922,-9.36719 -0.29687,-2.48047 -0.1875,-4.54297 2.77735,-3.67578 1.42578,-1.4336 2.49218,-3.61719 2.15625,-5.78906 1.79297,-0.44922 5.72656,1.30078 4.93359,-1.8086 v -94.57812 c -2.97266,-9.94532 -5.84375,-19.92578 -8.75391,-29.89063 -12.125,-0.1289 -24.2539,-0.2539 -36.3789,-0.38281 l -0.63672,2.45312 z m 8.566411,129.99219 h 9.027339 c -0.121089,3.67187 -0.94922,7.6836 -3.54297,10.38281 -0.34766,1.34765 0.95313,5.73048 -1.24219,3.67578 -1.96875,-0.78125 0.22657,-3.81641 -2.16015,-4.58594 -2.539069,-1.44141 -1.59766,-4.69531 -2.207029,-7.14062 0.1875,-0.48047 -0.78907,-2.59375 0.125,-2.33203 z m 13.496089,0 h 8.957031 c -0.367191,2.6836 -1.082031,5.30468 -1.613281,7.96093 -2.31641,-0.30077 -1.25391,3.51173 -2.027339,5.08594 -0.83204,1.96875 -2.91797,2.04688 -2.05079,-0.66016 0.85157,-2.26953 -1.36718,-2.96484 -2.128901,-4.50781 -0.42969,-2.64844 -0.83594,-5.30859 -1.601559,-7.87891 z m 0,0"
     fill-opacity="1"
     fill-rule="nonzero"
     id="path69" />
  <path
     fill="#07215f"
     d="m 11.820313,322.23046 h 4.79687 l 0.87891,2.35157 c 0.48438,1.29296 0.91016,2.67578 0.94922,3.07421 l 0.0703,0.72266 4.36719,0.4375 -0.71094,3.76172 -0.70703,3.76173 -0.90625,0.55469 -0.90234,0.55468 -0.46875,3.22266 -0.46875,3.21875 -0.97657,0.82812 -0.97265,0.82813 0.73437,1.21875 h 21.14844 c 11.63281,0 21.57031,-0.16406 22.08203,-0.36719 l 0.92969,-0.36719 -1.22656,-4.48437 c -0.67969,-2.46484 -1.90235,-5.77344 -2.72266,-7.35156 l -1.48828,-2.86719 v -3.30859 h 2.73828 l 1.09766,-1.60938 c 0.60547,-0.88672 1.09765,-2.1875 1.09765,-2.89453 v -1.28516 h 4.9336 v -96.80078 l -1.05469,-3.51953 c -0.57813,-1.9375 -2.56641,-8.73047 -4.41797,-15.09766 l -3.37109,-11.57812 -18.45703,-0.19531 -18.45313,-0.19141 -0.70703,2.72656 c -0.39063,1.4961 -2.30859,8.85157 -4.26172,16.33594 l -3.55078,13.61328 v 94.71093 z m 1.25781,-94.79687 0.488279,-1.26563 c 0.26953,-0.69922 1.1836,-4.03515 2.035161,-7.41797 l 1.54297,-6.15234 11.4375,-0.19922 11.43359,-0.19922 v 15.23438 z m 0.15235,82.49219 V 228.8789 h 50.04296 v 81.04688 h -3.457031 l -0.210929,-4.82813 -0.20704,-4.82422 -0.88281,-0.30078 -0.8789,-0.29687 v 10.25 h -34.53907 v -8.6836 h -2.11328 v 8.6836 z m 5.64062,14.90625 v -2.60157 h 40.87891 v 2.60157 l -0.84766,0.87109 -0.84375,0.86719 h -37.49609 l -0.84766,-0.86719 -0.84766,-0.87109 z m 0.90625,19.79687 0.72266,-3.24219 0.72265,-3.23828 h 7.5586 l 0.27734,0.90625 c 0.14844,0.49611 0.47266,2.125 0.71484,3.61719 l 0.4375,2.71484 h -4.84765 c -2.667971,0 -5.01563,-0.17187 -5.21875,-0.3789 z m 3.16406,-7.92578 0.46875,-2.71483 c 0.92188,-5.34767 1.95703,-6.83204 2.77344,-3.98048 0.19922,0.69531 0.57422,2.48828 0.83203,3.98048 l 0.46875,2.71483 z m 5.59766,-8.68358 h 8.65625 l -0.0625,1.26562 c -0.11328,2.26952 -1.44531,6.30469 -2.46484,7.47266 l -0.9961,1.14453 v 3.94922 l -0.70703,-0.44532 -0.70312,-0.44921 v -2.75391 l -2.85938,-2.73438 -0.43359,-3.72656 z m 5.66016,16.64062 0.4414,-2.25781 c 0.24219,-1.2461 0.44141,-2.71094 0.44141,-3.25781 v -0.99611 h 7.7539 l 0.0156,0.54298 c 0.008,0.30077 0.29297,1.76563 0.62891,3.25781 l 0.61328,2.71094 z m 2.90234,-7.95703 0.35937,-1.26563 c 0.19922,-0.69921 0.57422,-2.49218 0.83594,-3.99218 0.25781,-1.4961 0.73047,-2.88672 1.05469,-3.09375 l 0.58594,-0.3711 0.73828,2.73047 c 0.40625,1.50391 0.74219,3.46875 0.74609,4.36328 l 0.004,1.62891 z m 4.32422,-125.91406 v -14.47266 h 8.39062 l 2.14844,6.88281 c 1.17969,3.78907 2.14453,7.04297 2.14453,7.23828 0,0.19532 -2.85156,0.35157 -6.33984,0.35157 z m 0.60937,117.23047 h 8.55078 l -0.0742,0.54296 c -0.043,0.29687 -0.37891,1.92579 -0.7461,3.61718 l -0.67187,3.07423 h -1.20313 l -0.47656,2.89063 -0.47266,2.89062 -0.64453,0.41016 -0.64453,0.40625 v -4.25 l -1.03906,-0.88282 -1.03516,-0.88671 -0.43359,-2.64063 c -0.23828,-1.45312 -0.58594,-3.21094 -0.76953,-3.90625 z m 5.73438,17.36718 v -1.35937 c 0,-0.7461 0.19531,-2.3711 0.4375,-3.61719 l 0.4414,-2.26173 h 8.19922 l 0.3125,0.54298 c 0.17188,0.30077 0.53516,1.92577 0.8086,3.61719 l 0.49609,3.07812 z m 2.69531,-8.68359 0.49609,-3.07813 c 0.26954,-1.6914 0.828129,-3.72656 1.23829,-4.51953 l 0.746089,-1.44922 0.46875,1.8086 c 0.25781,0.99609 0.65625,3.03125 0.890621,4.52344 l 0.421879,2.71484 z m 2.94141,-28.94531 h 1.41015 v -77.42969 h -1.41015 z m 0,-111.44141 h 2.66797 l 0.42187,1.62891 c 0.23438,0.89453 1.20313,4.17187 2.15234,7.28125 l 1.72266,5.65234 -1.15234,-0.22656 -1.15625,-0.23047 -2.28907,-6.50781 c -1.26171,-3.58203 -2.30859,-6.75391 -2.328121,-7.05469 l -0.0391,-0.53906 z m 2.820309,102.03516 h 4.22656 v -68.02345 h -4.22656 z m 0,0"
     fill-opacity="1"
     fill-rule="nonzero"
     id="path71" />
  <path
     fill="#ffffff"
     d="m 12.167973,335.21485 v 13.02344 H 65.753902 V 322.1875 h -53.58593 z m 0,0"
     fill-opacity="1"
     fill-rule="nonzero"
     id="path73" />
  <path
     fill="#07215f"
     d="m 11.824223,348.60156 h 54.273429 v -26.77344 h -54.27343 z m 10.30468,-1.44922 v -23.87891 h 19.23828 v 23.87891 z m 35.72657,0 v -23.87891 h 6.867179 v 23.87891 z m 0,0"
     fill-opacity="1"
     fill-rule="nonzero"
     id="path75" />
</svg>
