<?xml version="1.0" encoding="UTF-8" standalone="no"?>
<!-- Created with Inkscape (http://www.inkscape.org/) -->

<svg
   version="1.1"
   id="svg2"
   width="100.2901"
   height="767.58771"
   viewBox="0 0 100.2901 767.58771"
   sodipodi:docname="AEntidade-PT1 (2).png"
   xml:space="preserve"
   xmlns:inkscape="http://www.inkscape.org/namespaces/inkscape"
   xmlns:sodipodi="http://sodipodi.sourceforge.net/DTD/sodipodi-0.dtd"
   xmlns="http://www.w3.org/2000/svg"
   xmlns:svg="http://www.w3.org/2000/svg"><defs
     id="defs6"><filter
       x="0"
       y="0"
       width="1"
       height="1"
       id="5441311b52"><feColorMatrix
         values="0 0 0 0 1 0 0 0 0 1 0 0 0 0 1 0 0 0 1 0"
         color-interpolation-filters="sRGB"
         id="feColorMatrix2739" /></filter><mask
       id="7d97841010"><g
         filter="url(#5441311b52)"
         id="g2744"><rect
           x="-102.45"
           width="1229.4"
           fill="#000000"
           y="-57.599998"
           height="691.20001"
           fill-opacity="0.68"
           id="rect2742" /></g></mask><clipPath
       id="736a26b3e8"><path
         d="M 0.476562,1 H 24.464844 V 17.226562 H 0.476562 Z m 0,0"
         clip-rule="nonzero"
         id="path2747" /></clipPath><clipPath
       id="61c03e2311"><rect
         x="0"
         width="25"
         y="0"
         height="18"
         id="rect2750" /></clipPath><clipPath
       id="994c319d2d"><path
         d="M 638,103 H 822 V 231 H 638 Z m 0,0"
         clip-rule="nonzero"
         id="path2753" /></clipPath><clipPath
       id="bbf730b58c"><path
         d="M 976.47656,-31.273438 1039.6406,96.386719 64.042969,579.06641 0.882812,451.40625 Z m 0,0"
         clip-rule="nonzero"
         id="path2756" /></clipPath><clipPath
       id="e6ed1b6e98"><path
         d="M 976.47656,-31.273438 1039.6406,96.386719 64.042969,579.06641 0.882812,451.40625 Z m 0,0"
         clip-rule="nonzero"
         id="path2759" /></clipPath><clipPath
       id="1d3f2f6c82"><path
         d="M 638,102 H 825 V 231 H 638 Z m 0,0"
         clip-rule="nonzero"
         id="path2762" /></clipPath><clipPath
       id="0aa8c2d1fb"><path
         d="M 976.47656,-31.273438 1039.6406,96.386719 64.042969,579.06641 0.882812,451.40625 Z m 0,0"
         clip-rule="nonzero"
         id="path2765" /></clipPath><clipPath
       id="a04b86304a"><path
         d="M 976.47656,-31.273438 1039.6406,96.386719 64.042969,579.06641 0.882812,451.40625 Z m 0,0"
         clip-rule="nonzero"
         id="path2768" /></clipPath><clipPath
       id="d596ed557c"><path
         d="m 794,31 h 217 V 165 H 794 Z m 0,0"
         clip-rule="nonzero"
         id="path2771" /></clipPath><clipPath
       id="30a4ea1071"><path
         d="M 976.47656,-31.273438 1039.6406,96.386719 64.042969,579.06641 0.882812,451.40625 Z m 0,0"
         clip-rule="nonzero"
         id="path2774" /></clipPath><clipPath
       id="84b638e657"><path
         d="M 976.47656,-31.273438 1039.6406,96.386719 64.042969,579.06641 0.882812,451.40625 Z m 0,0"
         clip-rule="nonzero"
         id="path2777" /></clipPath><clipPath
       id="c60354c07b"><path
         d="m 793,31 h 219 V 165 H 793 Z m 0,0"
         clip-rule="nonzero"
         id="path2780" /></clipPath><clipPath
       id="760fc20708"><path
         d="M 976.47656,-31.273438 1039.6406,96.386719 64.042969,579.06641 0.882812,451.40625 Z m 0,0"
         clip-rule="nonzero"
         id="path2783" /></clipPath><clipPath
       id="76f1399e30"><path
         d="M 976.47656,-31.273438 1039.6406,96.386719 64.042969,579.06641 0.882812,451.40625 Z m 0,0"
         clip-rule="nonzero"
         id="path2786" /></clipPath><clipPath
       id="82f001bf1e"><path
         d="M 9,281 H 441 V 572 H 9 Z m 0,0"
         clip-rule="nonzero"
         id="path2789" /></clipPath><clipPath
       id="59235d3654"><path
         d="M 976.47656,-31.273438 1039.6406,96.386719 64.042969,579.06641 0.882812,451.40625 Z m 0,0"
         clip-rule="nonzero"
         id="path2792" /></clipPath><clipPath
       id="6929c18770"><path
         d="M 976.47656,-31.273438 1039.6406,96.386719 64.042969,579.06641 0.882812,451.40625 Z m 0,0"
         clip-rule="nonzero"
         id="path2795" /></clipPath><clipPath
       id="df6c145596"><path
         d="M 8,280 H 442 V 573 H 8 Z m 0,0"
         clip-rule="nonzero"
         id="path2798" /></clipPath><clipPath
       id="dd4fb87362"><path
         d="M 976.47656,-31.273438 1039.6406,96.386719 64.042969,579.06641 0.882812,451.40625 Z m 0,0"
         clip-rule="nonzero"
         id="path2801" /></clipPath><clipPath
       id="7caace651b"><path
         d="M 976.47656,-31.273438 1039.6406,96.386719 64.042969,579.06641 0.882812,451.40625 Z m 0,0"
         clip-rule="nonzero"
         id="path2804" /></clipPath><clipPath
       id="b2c77b422a"><path
         d="M 404,167 H 693 V 362 H 404 Z m 0,0"
         clip-rule="nonzero"
         id="path2807" /></clipPath><clipPath
       id="3dd4f618de"><path
         d="M 976.47656,-31.273438 1039.6406,96.386719 64.042969,579.06641 0.882812,451.40625 Z m 0,0"
         clip-rule="nonzero"
         id="path2810" /></clipPath><clipPath
       id="96426bdd0f"><path
         d="M 976.47656,-31.273438 1039.6406,96.386719 64.042969,579.06641 0.882812,451.40625 Z m 0,0"
         clip-rule="nonzero"
         id="path2813" /></clipPath><clipPath
       id="40a02df1bb"><path
         d="M 403,166 H 694 V 364 H 403 Z m 0,0"
         clip-rule="nonzero"
         id="path2816" /></clipPath><clipPath
       id="68c1bbd7c6"><path
         d="M 976.47656,-31.273438 1039.6406,96.386719 64.042969,579.06641 0.882812,451.40625 Z m 0,0"
         clip-rule="nonzero"
         id="path2819" /></clipPath><clipPath
       id="be41173922"><path
         d="M 976.47656,-31.273438 1039.6406,96.386719 64.042969,579.06641 0.882812,451.40625 Z m 0,0"
         clip-rule="nonzero"
         id="path2822" /></clipPath><clipPath
       id="9007f056df"><path
         d="m 396,259 h 90 v 114 h -90 z m 0,0"
         clip-rule="nonzero"
         id="path2825" /></clipPath><clipPath
       id="2cb977934c"><path
         d="M 976.47656,-31.273438 1039.6406,96.386719 64.042969,579.06641 0.882812,451.40625 Z m 0,0"
         clip-rule="nonzero"
         id="path2828" /></clipPath><clipPath
       id="235dd93ede"><path
         d="M 976.47656,-31.273438 1039.6406,96.386719 64.042969,579.06641 0.882812,451.40625 Z m 0,0"
         clip-rule="nonzero"
         id="path2831" /></clipPath><clipPath
       id="c1495b0879"><path
         d="m 395,258 h 92 v 115 h -92 z m 0,0"
         clip-rule="nonzero"
         id="path2834" /></clipPath><clipPath
       id="53cccd44cf"><path
         d="M 976.47656,-31.273438 1039.6406,96.386719 64.042969,579.06641 0.882812,451.40625 Z m 0,0"
         clip-rule="nonzero"
         id="path2837" /></clipPath><clipPath
       id="cd853663a2"><path
         d="M 976.47656,-31.273438 1039.6406,96.386719 64.042969,579.06641 0.882812,451.40625 Z m 0,0"
         clip-rule="nonzero"
         id="path2840" /></clipPath></defs><sodipodi:namedview
     id="namedview4"
     pagecolor="#ffffff"
     bordercolor="#000000"
     borderopacity="0.25"
     inkscape:showpageshadow="2"
     inkscape:pageopacity="0.0"
     inkscape:pagecheckerboard="0"
     inkscape:deskcolor="#d1d1d1"
     showgrid="false" /><g
     inkscape:groupmode="layer"
     inkscape:label="Image"
     id="g8"
     transform="translate(-578.42664,-0.01805924)"><g
       id="g3053"
       transform="matrix(0.3090995,-0.63374793,0.63374793,0.3090995,292.34611,628.83917)"><g
         mask="url(#7d97841010)"
         id="g2853"><g
           transform="translate(990,549)"
           id="g2851"><g
             clip-path="url(#61c03e2311)"
             id="g2849"><g
               clip-path="url(#736a26b3e8)"
               id="g2847"><path
                 fill="#ffffff"
                 d="M 12.273438,17.308594 23.757812,5.941406 C 25.976562,3.746094 21.875,-0.765625 19.292969,1.878906 L 12.273438,9.074219 5.371094,1.648438 C 3.269531,-0.613281 -1.042969,3.574219 1.140625,5.824219 Z m 0,0"
                 fill-opacity="1"
                 fill-rule="nonzero"
                 id="path2845" /></g></g></g></g><g
         clip-path="url(#994c319d2d)"
         id="g2861"><g
           clip-path="url(#bbf730b58c)"
           id="g2859"><g
             clip-path="url(#e6ed1b6e98)"
             id="g2857"><path
               fill="#fefefe"
               d="m 662.69531,166.98047 12.71094,25.69531 -11.8125,5.84375 -9.14453,0.67188 -9.14063,0.67578 -5.41797,1.24218 -1.15234,0.57032 14.05078,28.40234 1.66016,-1.79297 c 0.91015,-0.98828 3.89844,-3.60547 6.64062,-5.82031 2.74219,-2.21094 5.8086,-5.41797 6.82032,-7.12891 l 1.83593,-3.10937 12.32032,-6.09375 11.5039,23.24609 127.50781,-63.08594 -30.875,-62.40234 z m 0,0"
               fill-opacity="1"
               fill-rule="nonzero"
               id="path2855" /></g></g></g><g
         clip-path="url(#1d3f2f6c82)"
         id="g2869"><g
           clip-path="url(#0aa8c2d1fb)"
           id="g2867"><g
             clip-path="url(#a04b86304a)"
             id="g2865"><path
               fill="#07215f"
               d="m 662.57812,166.96094 12.73829,25.74609 -11.83594,5.85938 -9.16406,0.67187 -9.16016,0.67578 -5.42969,1.2461 -1.15234,0.57031 14.08203,28.46094 1.66016,-1.80079 c 0.91015,-0.98828 3.90625,-3.60937 6.65234,-5.82812 2.75,-2.21484 5.82422,-5.42969 6.83594,-7.14453 l 1.83984,-3.11328 12.34375,-6.10938 11.52734,23.29688 131.1875,-64.90625 -30.9375,-62.53125 z m 3.66407,1.23828 105.4414,-52.16797 20.01953,40.46094 -105.4414,52.16797 z m -22.47657,37.08594 c 0.17579,-0.0703 4.35547,-0.76954 9.29297,-1.54688 l 8.98047,-1.40625 5.30469,-2.625 c 2.91797,-1.44531 6.34766,-2.72266 7.61719,-2.84375 l 2.30468,-0.21484 2.29688,4.64453 -11.48438,5.67969 -3.83203,4.79687 c -2.10937,2.63672 -5.72656,6.17578 -8.03906,7.86328 L 652,222.69922 l -4.27344,-8.64063 c -2.35156,-4.75 -4.13281,-8.69922 -3.96094,-8.77343 z m 43.71094,5.82812 105.44141,-52.16797 1.21094,2.45313 -105.44141,52.16797 z m 3.63672,7.35547 105.44141,-52.16797 1.82031,3.67969 -105.44141,52.16797 z m 0,0"
               fill-opacity="1"
               fill-rule="nonzero"
               id="path2863" /></g></g></g><g
         clip-path="url(#d596ed557c)"
         id="g2877"><g
           clip-path="url(#30a4ea1071)"
           id="g2875"><g
             clip-path="url(#84b638e657)"
             id="g2873"><path
               fill="#fefefe"
               d="m 794.16797,102.00391 30.82812,62.30468 4.70313,-3.26562 c 4.83984,-3.35938 33.97265,-26.35156 46.46094,-36.66406 l 6.70312,-5.53516 41.25781,-20.414062 22.61719,-23.257813 32.89453,-16.273437 -1.80078,-3.636719 33.00777,-16.328125 -3.5976,-7.273438 -34.22658,16.933594 -1.19921,-2.421875 -27.79688,13.75 -17.86328,1.296875 -17.86719,1.296875 -39.10937,19.347656 -16.42578,4.382813 c -9.03516,2.410156 -23.73047,6.234375 -32.65625,8.492187 -8.92579,2.257813 -18.4375,4.828125 -21.14063,5.707029 z m 0,0"
               fill-opacity="1"
               fill-rule="nonzero"
               id="path2871" /></g></g></g><g
         clip-path="url(#c60354c07b)"
         id="g2885"><g
           clip-path="url(#760fc20708)"
           id="g2883"><g
             clip-path="url(#76f1399e30)"
             id="g2881"><path
               fill="#07215f"
               d="m 793.69922,102.10156 30.9375,62.52735 4.82422,-3.35157 c 4.85547,-3.375 34.07812,-26.43359 46.60156,-36.77734 l 6.72656,-5.55078 41.38281,-20.472658 11.34375,-11.667968 11.33985,-11.664063 32.99219,-16.320312 -1.80469,-3.648438 33.10543,-16.378906 -3.6093,-7.292969 -34.32816,16.984375 -1.20313,-2.429687 -27.8789,13.792968 -17.91797,1.296876 -17.92188,1.300781 -39.22656,19.40625 -16.47656,4.398437 c -9.0625,2.417969 -23.80078,6.25 -32.75391,8.515625 -8.94922,2.269531 -18.49219,4.84375 -21.20312,5.726559 z m 3.65625,1.21875 4.33203,-1.26172 c 9.9375,-2.90234 56.03125,-14.660152 58.32812,-14.882809 l 2.48829,-0.238281 9.47265,19.14063 -2.45312,1.98437 c -1.35157,1.08984 -13.21485,9.01172 -26.36328,17.60938 -13.14844,8.59765 -24.46875,15.91015 -25.15625,16.24999 l -1.2461,0.61719 z m 69.30078,-17.246091 41.6875,-20.625 10.82422,21.882812 -41.6836,20.621099 z m 44.74219,-20.621094 0.95703,-0.476563 c 1.60156,-0.789062 25.76562,-2.09375 28.22656,-1.519531 l 2.29688,0.535157 1.1875,3.324218 1.18359,3.328125 -8.17188,8.160157 c -4.49218,4.488281 -9.40625,8.789062 -10.91406,9.558593 l -2.73828,1.402344 -12.03125,-24.3125 z m 33.60937,-3.011719 26.97656,-13.347656 3.60547,7.296875 -26.97265,13.34375 z m 30.62891,-12.128906 29.42578,-14.558594 1.2031,2.433594 -29.42576,14.558594 z m -102.52735,58.05469 1.14454,2.3125 -19.55079,13.69531 c -10.7539,7.53516 -21.61718,15.07812 -24.14062,16.76172 -2.52734,1.67969 -5.96484,4.09765 -7.64844,5.36328 l -3.05469,2.30859 -1.68359,-3.40234 24.42188,-16.19141 c 13.43359,-8.90625 25.79296,-17.23828 27.46484,-18.51953 z m 6.17579,3.23437 41.6875,-20.624998 1.20312,2.433594 -41.6875,20.621094 z m -3.95313,3.41797 0.94141,0.31641 c 1.79297,0.59765 0.32031,1.85937 -22.83985,19.58203 -12.78906,9.78125 -24.6289,18.82422 -26.30859,20.09375 l -3.05469,2.30469 -1.09375,-2.21094 10.32031,-7.67578 c 5.67579,-4.22266 14.77344,-11.16016 20.21875,-15.42578 5.44922,-4.26172 12.58594,-9.82422 15.85938,-12.36719 z m 0,0"
               fill-opacity="1"
               fill-rule="nonzero"
               id="path2879" /></g></g></g><g
         clip-path="url(#82f001bf1e)"
         id="g2893"><g
           clip-path="url(#59235d3654)"
           id="g2891"><g
             clip-path="url(#6929c18770)"
             id="g2889"><path
               fill="#fefefe"
               d="M 245.58203,356.0625 94.691406,430.71484 c -9.980468,-3.3789 -19.957031,-6.76562 -29.933594,-10.14843 l -16.234374,8.03125 10.082031,20.38281 c -2.832031,1.59765 -9.109375,0.33594 -9.046875,4.33984 0.05469,2.8086 1.636718,5.21485 2.773437,7.67188 -5.917969,0.55468 -12.296875,-1.00391 -17.890625,1.0039 -8.042968,2.6875 -16.554687,3.86328 -24.914062,5.00391 l 32.667968,66.03125 c 5.957032,-3.4375 10.871094,-8.67578 16.464844,-12.41406 4.417969,1.40625 7.542969,-0.21485 9.613282,-4.30078 2.375,-2.6211 4.28125,-6.06641 7.789062,-7.375 1.097656,0.94921 1.519531,6.10546 3.460938,3.53515 2.300781,-2.47265 4.503906,-5.03125 6.769531,-7.53515 l 6.152343,12.4375 c -2.980468,1.33984 -8.859374,1.89062 -10.054687,3.71875 2.648437,2.90625 6.703125,6.28906 -0.02734,5.99218 -5.515625,0.76172 -11.074219,0.39063 -16.59375,0.28907 -0.621093,4.23437 -4.457031,4.65625 -8.082031,5.32031 -4.585938,1.22656 -9.351562,2.0039 -13.734375,3.88281 l 17.472656,35.32031 c 6.261719,-5.87109 12.789063,-11.86718 20.1875,-16.13672 3.367188,-4.60937 6.730469,-9.21484 10.097657,-13.82031 3.003906,3.1875 5.546874,3.13672 7.628906,-0.80078 1.011712,-1.63281 3.320312,-3.56641 4.175782,-0.76953 2.79687,4.64062 4.99609,9.60937 7.44921,14.43359 4.46485,-2.60937 10.1875,-4.2539 13.88672,-7.4414 1.64844,-6.33985 2.99219,-12.84766 4.82031,-19.08594 5.92188,-6.33594 14.80469,-8.44141 22.14844,-12.73828 96.24219,-47.62891 192.48438,-95.25781 288.72266,-142.88672 l -44.9336,-90.82422 -150.01953,74.22656 z m -174.640624,117.87109 5.238282,10.58594 c -3.746094,0.66797 -7.492188,1.33203 -11.242188,1.95313 2.292969,2.58593 1.789062,4.59375 -1.683594,4.94921 -4.84375,1.11329 -10.050781,1.46485 -14.742187,2.32032 2.582031,3.13281 1.648437,4.22656 -2.675781,4.86718 -5.609376,1.79297 -11.367188,2.9961 -17.132813,4.08594 -3.410156,-3.69922 3.132813,-5.55859 5.226563,-8.24219 4.214843,-4.99609 11.402343,-5.65234 16.144531,-9.65625 2.695312,-3.25781 5.394531,-6.51562 8.089843,-9.77734 2.464844,1.45313 4.757813,6.66797 7.738282,3.48047 1.867187,-1.55469 3.082031,-3.66797 4.550781,-5.55078 z m 0,0"
               fill-opacity="1"
               fill-rule="nonzero"
               id="path2887" /></g></g></g><g
         clip-path="url(#df6c145596)"
         id="g2901"><g
           clip-path="url(#dd4fb87362)"
           id="g2899"><g
             clip-path="url(#7caace651b)"
             id="g2897"><path
               fill="#07215f"
               d="m 47.660156,428.29297 10.011719,20.23437 -4.230469,1.08985 -4.230468,1.08203 -0.265626,2.125 c -0.144531,1.16797 0.324219,3.33203 1.042969,4.80469 l 1.304688,2.68359 -7.558594,0.0469 -7.558594,0.043 -2.363281,1.16797 c -2.015625,0.9961 -16.894531,3.96094 -23.277344,4.64063 l -2.007812,0.21093 33.390625,67.48438 1.523437,-0.77734 c 0.835938,-0.42969 4.59375,-3.27344 8.351563,-6.32422 l 6.828125,-5.55078 3.085937,0.2539 3.082031,0.25 4.304688,-5.38281 c 2.367188,-2.96094 4.839844,-5.64844 5.496094,-5.97266 l 1.191406,-0.58984 1.167969,2.35937 c 1.394531,2.82422 1.207031,2.89063 5.652343,-2.08593 l 3.554688,-3.98047 5.371094,10.85547 -5.355469,1.64453 -5.355469,1.64844 2.414063,2.78125 2.410156,2.77734 -3.34375,0.60547 c -1.835937,0.33203 -6.394531,0.52734 -10.125,0.43359 l -6.78125,-0.17187 -0.917969,1.95312 -0.914062,1.96094 -8.695313,2.09375 c -4.78125,1.15234 -9.390625,2.42969 -10.238281,2.83594 l -1.542969,0.74218 18.171875,36.72266 2.339844,-2.21094 c 5.617188,-5.32031 13.238281,-11.53515 15.574219,-12.70703 l 2.53125,-1.26953 10.203125,-13.96875 2.214844,1.46484 2.210937,1.46094 2.535156,-3.02344 c 1.394529,-1.66406 2.789059,-3.14843 3.093749,-3.29687 0.3086,-0.15234 2.39453,3.44141 4.64063,7.98047 l 4.08593,8.25781 14.63282,-7.24219 2.42578,-9.85156 2.42578,-9.84766 2.10156,-1.91406 2.10547,-1.91406 153.55859,-75.99219 153.55469,-75.99609 -45.51562,-92 -301.269535,149.05469 -14.96875,-5.07813 -14.964844,-5.07422 -17.109375,8.46485 z m 5.429688,1.71875 14.152344,-7.00391 11.339843,3.70703 c 6.238281,2.03516 11.507813,4.05469 11.71875,4.47657 0.210938,0.42578 -0.605469,1.26171 -1.8125,1.85937 l -2.195312,1.08594 -16.085938,-5.25781 -14.203125,7.02734 z m 4.082031,8.2539 13.085937,-6.47265 12.199219,4.09765 c 6.707031,2.25782 12.355469,4.41797 12.546875,4.80469 l 0.347656,0.70703 -4.058593,1.82422 c -4.207031,1.89063 -14.511719,5.4336 -22.535157,7.75 l -4.636718,1.33594 z m -43.730469,31.91407 1.539063,-0.74219 c 0.847656,-0.40625 4.902343,-1.46094 9.015625,-2.33203 l 7.476562,-1.58203 1.289063,0.77734 1.292969,0.77344 3.707031,7.89844 3.703125,7.90234 -0.402344,1.11328 -0.398438,1.11328 -8.367187,-16.91015 -2.449219,1.21484 8.753906,17.69141 -2.453124,1.21484 -9.40625,-19.01172 -0.867188,1.33594 -0.863281,1.33203 9.265625,18.73437 -3.675782,1.82032 -11.089843,-22.41016 -2.636719,1.30469 2.113281,3.72656 c 1.164063,2.05078 3.699219,7.07031 5.636719,11.16016 l 3.523438,7.43359 -2.453126,1.21094 z m 38.347656,-16.03516 1.539063,-0.76172 c 0.847656,-0.41797 2.574219,-0.87109 3.835937,-1.00781 l 2.289063,-0.24219 9.089844,18.36719 -1.585938,1.67578 c -0.871093,0.92188 -2.300781,2.03125 -3.179687,2.46484 l -1.597656,0.78907 -5.199219,-10.64063 z m 193.324218,-95.64844 123.83203,-61.26562 7.58594,15.33203 25.75,-12.73828 16.33984,33.02734 -25.75,12.73828 9.33985,18.8711 -123.83203,61.26562 -1.75391,-3.53515 121.38281,-60.05469 -1.16797,-2.35938 -121.3789,60.05469 z m -209.089842,104.875 9.125,-0.0664 9.121093,-0.0664 3.402344,6.87109 -5.582031,5.80079 c -3.066406,3.19531 -5.832032,5.92968 -6.144532,6.08593 -0.3125,0.15235 -2.671874,-3.97265 -5.246093,-9.17187 z m 31.433593,-8.1875 c 0.835938,-0.42578 12.457031,-4.71093 25.8125,-9.52734 l 24.289059,-8.75391 -1.14062,1.60547 c -1.24609,1.75391 -22.38672,18.625 -33.01172,26.34375 -3.664062,2.66406 -7.386719,5.19922 -8.273438,5.64063 l -1.613281,0.79687 -7.589843,-15.33203 z m 66.343749,-25.46484 87.08203,-43.08203 14.58985,29.48437 -152.031254,75.21875 -6.859375,-13.85937 28.609379,-23.87891 z m -75.523436,46.23828 5.203125,4.70313 1.683593,-0.83204 c 0.925782,-0.45703 2.480469,-1.91015 3.453126,-3.22656 l 1.765624,-2.39453 4.84375,9.79297 -3.15625,0.5625 c -1.734374,0.30469 -4.265624,0.74609 -5.621093,0.97266 l -2.46875,0.40625 1.886719,3.8164 -1.578126,0.67188 c -0.863281,0.37109 -4.960937,1.11718 -9.097656,1.65625 l -7.527344,0.98437 0.257813,0.88281 c 0.144531,0.48829 0.582031,1.3086 0.976563,1.82813 l 0.714843,0.94531 -5.019531,1.5625 c -2.761719,0.86328 -7.363281,2.02735 -10.230469,2.59375 l -5.214843,1.03125 -0.894532,-1.80469 10.234375,-8.61718 5.597657,-2.57032 5.59375,-2.57421 4.296874,-5.19532 z m -27.324219,29.60547 2.066406,-1.01953 c 1.136719,-0.5625 5.703125,-1.7461 10.148438,-2.62891 L 51.25,500.3125 l 7.429688,15.02344 -2.449219,1.21484 -6.421875,-12.97656 -2.449219,1.21484 7,14.15235 -2.449219,1.21484 -8.171875,-16.51563 -2.453125,1.21485 8.753906,17.6914 -3.675781,1.82032 -8.753906,-17.69141 -2.640625,1.30469 5.070312,9.24219 5.070313,9.23828 -3.066406,1.51953 -11.085938,-22.41406 z m 21.28125,-9.42578 3.695313,-1.01563 c 2.03125,-0.5625 5.484374,-1.21484 7.675781,-1.44922 l 3.984375,-0.43359 5.726562,11.57813 -1.804687,1.74609 c -0.996094,0.96094 -3.503907,3.52344 -5.578125,5.69531 l -3.769532,3.94531 z m 17.632813,-8.16406 3.582031,-0.16407 3.578125,-0.16797 7.265625,14.67969 -2.40625,2.07813 c -1.324219,1.14062 -2.816407,2.28906 -3.320313,2.54687 l -0.910156,0.47266 -8.558594,-17.30078 0.386719,-1.07422 z m -23.027344,49.69921 9.265625,-2.08984 9.269531,-2.08594 5.308594,10.4961 5.304687,10.5 -4.683593,-8.32813 -4.675782,-8.33203 -2.347656,1.16406 8.753906,17.69141 -2.453125,1.21484 -9.335937,-18.875 -2.453125,1.21485 9.921875,20.05078 -3.679688,1.82031 -10.503906,-21.23047 -2.453125,1.21094 11.089844,22.41016 -2.453125,1.21484 -13.878906,-28.04688 z M 88.09375,521.49609 c 0.5,-0.26172 1.246094,-0.40234 2.238281,-0.5625 l 2.929688,-0.48437 6.296875,12.73437 -1.765625,2.39453 c -0.972657,1.31641 -2.335938,2.67579 -3.027344,3.01563 l -1.261719,0.625 -3.339844,-8.10156 c -2.859374,-6.9336 -3.570312,-8.82813 -2.070312,-9.6211 z m -16.679688,9.55078 c 0.84375,-0.41796 4.738282,-0.875 8.660157,-1.0039 l 7.136719,-0.23047 3.722656,7.52734 -5.386719,6.44141 c -2.964844,3.54687 -5.601563,6.54687 -5.855469,6.67578 -0.257812,0.125 -2.570312,-4.01562 -5.136718,-9.20703 l -4.667969,-9.4375 1.527343,-0.76953 z M 281.29687,431.625 l 123.83204,-61.26563 2.33203,4.71875 25.75,-12.73828 2.33203,4.71875 -149.57813,74.00391 z m -30.09765,16.28516 4.11328,8.3164 -59.81641,29.47656 c -32.89843,16.21485 -59.36718,29.00391 -58.8164,28.42188 0.55078,-0.58203 7.44531,-6.08203 15.32422,-12.21484 L 166.32422,490.75 208.76172,469.33203 Z M 125.3125,523.14062 c 5.28906,-2.54687 3.70312,2.83594 -0.62891,17.16797 l -1.95703,6.47657 -10.75,5.3164 -6.98047,-14.10937 2.48047,-1.92969 c 9.01563,-7.01563 14.66407,-11.39844 17.83594,-12.92188 z m 0,0"
               fill-opacity="1"
               fill-rule="nonzero"
               id="path2895" /></g></g></g><g
         clip-path="url(#b2c77b422a)"
         id="g2909"><g
           clip-path="url(#3dd4f618de)"
           id="g2907"><g
             clip-path="url(#96426bdd0f)"
             id="g2905"><path
               fill="#fefefe"
               d="m 658.32422,168.28516 c -19.25,4.11328 -38.65625,7.78125 -57.81641,12.16015 L 441.35156,259.1875 c 0.8086,3.45312 6.24219,7.51562 1.74219,10.26953 -2.12891,2.13281 -4.03516,4.59375 -6.625,6.20703 -0.0312,2.66406 5.375,8.00781 0.94141,8.50391 -4.3711,1.05078 -8.86719,2.8164 -13.16797,3.45703 -3.39453,-3.71484 -7.87891,0.13672 -11.91797,0.90234 -2.75,2.96875 -6.35156,-2.72656 -7.91016,0.58985 12.17188,24.16406 23.56641,48.74609 36.59375,72.45703 2.73047,1.11328 5.67578,-4.25391 8.37891,-5.86328 4.78125,-4.33203 8.82422,-9.38672 12.5664,-14.54688 3.94922,-2.57812 7.53907,-4.125 8.55079,1.62891 3.6289,1.21094 8.21484,1.1875 11.61718,-1.20313 2.26563,2.66407 2.60157,10.79688 7.19922,6.84375 l 160.2461,-79.28125 c 14.36328,-13.3789 28.86328,-26.60547 43.3125,-39.89062 -9.94922,-20.65235 -19.90235,-41.30469 -29.85157,-61.95703 l -4.6914,0.98047 z m -213.06641,123.48828 7.56641,15.29297 c -6.32422,2.87109 -13.8125,4.83203 -20.5625,2.70312 -2.57422,0.53906 -8.90625,6.41797 -7.26563,0.97656 -0.33203,-3.99218 6.65625,-2.82031 5.95703,-7.50781 0.31641,-5.50781 6.61719,-6.64062 10.2461,-9.72656 0.97265,-0.0781 3.73437,-3.50781 4.05859,-1.73828 z m 11.3125,22.86328 7.50781,15.17969 c -4.85546,1.6289 -9.89453,2.61718 -14.83984,3.93359 -1.4375,-4.17188 -7,0.82422 -10.31641,0.83203 -4.03515,0.24219 -5.91406,-3.22266 -0.60156,-4.02734 4.5586,-0.46094 3.87891,-4.80469 5.85156,-7.38672 4.125,-2.94531 8.29297,-5.86328 12.01172,-9.31641 z m 0,0"
               fill-opacity="1"
               fill-rule="nonzero"
               id="path2903" /></g></g></g><g
         clip-path="url(#40a02df1bb)"
         id="g2917"><g
           clip-path="url(#68c1bbd7c6)"
           id="g2915"><g
             clip-path="url(#be41173922)"
             id="g2913"><path
               fill="#07215f"
               d="m 440.43359,258.89062 4.02344,8.125 -3.25,3.46094 c -1.78516,1.90235 -3.77344,3.78516 -4.41406,4.1875 l -1.16797,0.72656 1.46094,3.87891 1.45703,3.88281 -6.96485,1.94922 -6.96875,1.95313 -1.69531,-1.06641 -1.69922,-1.0625 -11.70312,3.80469 -2.21875,-0.95313 -2.22266,-0.95312 -1.44531,2.25781 17.73047,35.83984 c 9.7539,19.70704 18.35937,36.40625 19.13281,37.10547 l 1.39844,1.26953 6.5664,-5.84375 c 3.61329,-3.21093 8.19532,-8.0625 10.17969,-10.77343 l 3.60547,-4.92578 5.61328,-2.77344 2.29297,4.64062 3.64844,0.51172 c 2.0039,0.28125 4.625,0.0234 5.82422,-0.57031 l 2.17578,-1.07813 4.13672,8.35938 164.01172,-81.14453 5.08203,-4.73438 c 2.79687,-2.60547 12.63672,-11.66797 21.875,-20.14453 l 16.78906,-15.41406 -15.14063,-31.43359 -15.14453,-31.42969 -5.21093,1.08594 c -2.86719,0.59375 -16.92969,3.51171 -31.25391,6.47656 L 600.89453,179.5 440.42578,258.89453 Z m 161.67188,-77.33203 2.55469,-0.23437 c 1.40625,-0.12891 7.82421,-1.37891 14.26953,-2.77735 l 11.71875,-2.53515 19.84375,38.41406 -25.8086,12.76953 z m -139.64453,69.40625 137.3164,-67.9375 41.95313,84.78907 -137.32031,67.9414 -2.89844,-5.86328 8.0039,-4.40234 8.00391,-4.39844 -0.23437,-1.74219 -0.23047,-1.74219 -17.3711,8.59375 -28.95312,-58.51562 14.71484,-7.28125 -1.77344,-3.58203 -14.71484,7.27734 z m -20.53125,22.05078 4.41406,-2.18359 34.26953,69.26563 -4.41406,2.18359 -2.17969,-0.70703 -2.18359,-0.70313 -31.42969,-63.53125 0.76172,-2.16406 z m -32.77735,18.12891 6.09375,-1.48828 6.09375,-1.49609 6.33985,12.8125 -1.30469,1.22265 c -0.71484,0.67578 -3.20313,2.58594 -5.53125,4.2461 l -4.23047,3.01953 -4.0625,-8.21485 c -2.23437,-4.51953 -3.91406,-8.64062 -3.73047,-9.15625 l 0.33203,-0.9414 z m 16.08203,-1.28125 4.98829,-1.48047 c 9.83984,-2.91797 13.22265,-2.41015 9.07031,1.36719 -1.01172,0.92187 -3.73047,3.05469 -6.04688,4.74219 l -4.20312,3.07031 z m 19.40625,2.20703 7.25391,14.66406 -2.19922,0.95313 c -3.9414,1.71094 -11.89453,2.83984 -14.72656,2.08984 l -2.76953,-0.73047 -6.69531,3.3125 0.16406,-1.5664 0.16797,-1.57031 4.66406,-2.3086 1.12109,-3.57031 1.11719,-3.57031 5.95313,-3.85157 z m -23.45703,23.54297 4.20313,-1.15234 c 2.30859,-0.62891 4.95703,-1.52344 5.88672,-1.98047 l 1.68359,-0.83594 6.5,13.13672 -0.90625,0.48437 c -0.49609,0.26563 -2.74219,1.97266 -4.98828,3.79688 l -4.08203,3.31641 z m 15.91797,-1.75781 2.44922,-0.44922 c 1.34766,-0.24609 4.70313,-1.11719 7.45703,-1.93359 2.75391,-0.81641 5.51172,-1.17969 6.12891,-0.80469 l 1.125,0.68359 -4.01172,3.53906 c -2.20703,1.94922 -5.25,4.16407 -6.76563,4.91797 l -2.7539,1.375 -3.625,-7.32422 z M 654.0625,215.63281 678.58594,203.5 l 7.03515,14.21875 -9.86328,9.40625 c -5.42578,5.17578 -10.13281,9.54297 -10.46094,9.70703 -0.32812,0.16016 -2.99218,-4.54297 -5.91406,-10.45312 z m -198.10938,99.30078 7.16797,14.49219 -0.98047,0.32813 c -0.54296,0.17968 -3.58203,0.97656 -6.75781,1.76953 l -5.77344,1.4414 -1.00781,-2.03906 -5.29687,1.61719 -5.29297,1.61719 -1.23438,-0.75 -1.23047,-0.7461 7.19922,-3.5625 0.62891,-2.5039 0.62891,-2.5 4.11328,-2.94532 c 2.26172,-1.62109 4.94922,-3.68359 5.97265,-4.58203 z m -24.62109,24.27344 2.30078,-1.13672 c 1.26172,-0.625 4.1875,-1.65625 6.5,-2.28515 l 4.19922,-1.15235 6.87109,13.89063 -0.65625,0.98828 c -0.35937,0.53906 -2.8164,2.52344 -5.45312,4.40234 l -4.79297,3.41797 z m 16.97266,-2.71094 5.625,-1.73828 c 3.09765,-0.95703 7.01172,-1.71484 8.70703,-1.6875 l 3.07422,0.0508 -2.67188,2.3086 c -1.46875,1.26953 -4.58203,3.65234 -6.91797,5.29687 l -4.24218,2.9961 z m 51.51172,-19.27734 1.17968,2.38672 131.19141,-64.90625 -1.18359,-2.38672 z m 188.8125,-93.41797 2.23437,4.51953 -2.40234,2.08203 c -1.32032,1.14453 -6.0586,5.53125 -10.53125,9.7461 l -8.13282,7.66406 -1.16406,-4.29688 9.10938,-9.33593 c 5.01172,-5.13672 9.51172,-9.57422 10,-9.85938 z m -170.51172,90.30859 3.54687,7.16407 115.25,-57.01953 -3.54687,-7.16407 z m 0,0"
               fill-opacity="1"
               fill-rule="nonzero"
               id="path2911" /></g></g></g><g
         clip-path="url(#9007f056df)"
         id="g2925"><g
           clip-path="url(#2cb977934c)"
           id="g2923"><g
             clip-path="url(#235dd93ede)"
             id="g2921"><path
               fill="#fefefe"
               d="m 418.72656,270.36328 -22.07031,10.92188 44.91797,90.78906 44.14062,-21.83594 -44.92187,-90.79297 z m 0,0"
               fill-opacity="1"
               fill-rule="nonzero"
               id="path2919" /></g></g></g><g
         clip-path="url(#c1495b0879)"
         id="g2933"><g
           clip-path="url(#53cccd44cf)"
           id="g2931"><g
             clip-path="url(#cd853663a2)"
             id="g2929"><path
               fill="#07215f"
               d="m 395.75391,281.00391 45.49609,91.95703 45.36328,-22.44532 -45.49609,-91.95703 z m 11.08984,16.24609 40.46094,-20.01563 16.125,32.58985 -40.46094,20.01953 z m 29.94922,60.52734 40.45703,-20.01562 5.76172,11.64062 -40.46094,20.01563 z m 0,0"
               fill-opacity="1"
               fill-rule="nonzero"
               id="path2927" /></g></g></g></g><g
       id="g3151"
       transform="matrix(0.3090995,-0.63374793,0.63374793,0.3090995,292.34611,628.83917)"><g
         mask="url(#7d97841010)"
         id="g3069"><g
           transform="translate(990,549)"
           id="g3067"><g
             clip-path="url(#61c03e2311)"
             id="g3065"><g
               clip-path="url(#736a26b3e8)"
               id="g3063"><path
                 fill="#ffffff"
                 d="M 12.273438,17.308594 23.757812,5.941406 C 25.976562,3.746094 21.875,-0.765625 19.292969,1.878906 L 12.273438,9.074219 5.371094,1.648438 C 3.269531,-0.613281 -1.042969,3.574219 1.140625,5.824219 Z m 0,0"
                 fill-opacity="1"
                 fill-rule="nonzero"
                 id="path3061" /></g></g></g></g><g
         clip-path="url(#994c319d2d)"
         id="g3077"><g
           clip-path="url(#bbf730b58c)"
           id="g3075"><g
             clip-path="url(#e6ed1b6e98)"
             id="g3073"><path
               fill="#fefefe"
               d="m 662.69531,166.98047 12.71094,25.69531 -11.8125,5.84375 -9.14453,0.67188 -9.14063,0.67578 -5.41797,1.24218 -1.15234,0.57032 14.05078,28.40234 1.66016,-1.79297 c 0.91015,-0.98828 3.89844,-3.60547 6.64062,-5.82031 2.74219,-2.21094 5.8086,-5.41797 6.82032,-7.12891 l 1.83593,-3.10937 12.32032,-6.09375 11.5039,23.24609 127.50781,-63.08594 -30.875,-62.40234 z m 0,0"
               fill-opacity="1"
               fill-rule="nonzero"
               id="path3071" /></g></g></g><g
         clip-path="url(#1d3f2f6c82)"
         id="g3085"><g
           clip-path="url(#0aa8c2d1fb)"
           id="g3083"><g
             clip-path="url(#a04b86304a)"
             id="g3081"><path
               fill="#07215f"
               d="m 662.57812,166.96094 12.73829,25.74609 -11.83594,5.85938 -9.16406,0.67187 -9.16016,0.67578 -5.42969,1.2461 -1.15234,0.57031 14.08203,28.46094 1.66016,-1.80079 c 0.91015,-0.98828 3.90625,-3.60937 6.65234,-5.82812 2.75,-2.21484 5.82422,-5.42969 6.83594,-7.14453 l 1.83984,-3.11328 12.34375,-6.10938 11.52734,23.29688 131.1875,-64.90625 -30.9375,-62.53125 z m 3.66407,1.23828 105.4414,-52.16797 20.01953,40.46094 -105.4414,52.16797 z m -22.47657,37.08594 c 0.17579,-0.0703 4.35547,-0.76954 9.29297,-1.54688 l 8.98047,-1.40625 5.30469,-2.625 c 2.91797,-1.44531 6.34766,-2.72266 7.61719,-2.84375 l 2.30468,-0.21484 2.29688,4.64453 -11.48438,5.67969 -3.83203,4.79687 c -2.10937,2.63672 -5.72656,6.17578 -8.03906,7.86328 L 652,222.69922 l -4.27344,-8.64063 c -2.35156,-4.75 -4.13281,-8.69922 -3.96094,-8.77343 z m 43.71094,5.82812 105.44141,-52.16797 1.21094,2.45313 -105.44141,52.16797 z m 3.63672,7.35547 105.44141,-52.16797 1.82031,3.67969 -105.44141,52.16797 z m 0,0"
               fill-opacity="1"
               fill-rule="nonzero"
               id="path3079" /></g></g></g><g
         clip-path="url(#d596ed557c)"
         id="g3093"><g
           clip-path="url(#30a4ea1071)"
           id="g3091"><g
             clip-path="url(#84b638e657)"
             id="g3089"><path
               fill="#fefefe"
               d="m 794.16797,102.00391 30.82812,62.30468 4.70313,-3.26562 c 4.83984,-3.35938 33.97265,-26.35156 46.46094,-36.66406 l 6.70312,-5.53516 41.25781,-20.414062 22.61719,-23.257813 32.89453,-16.273437 -1.80078,-3.636719 33.00777,-16.328125 -3.5976,-7.273438 -34.22658,16.933594 -1.19921,-2.421875 -27.79688,13.75 -17.86328,1.296875 -17.86719,1.296875 -39.10937,19.347656 -16.42578,4.382813 c -9.03516,2.410156 -23.73047,6.234375 -32.65625,8.492187 -8.92579,2.257813 -18.4375,4.828125 -21.14063,5.707029 z m 0,0"
               fill-opacity="1"
               fill-rule="nonzero"
               id="path3087" /></g></g></g><g
         clip-path="url(#c60354c07b)"
         id="g3101"><g
           clip-path="url(#760fc20708)"
           id="g3099"><g
             clip-path="url(#76f1399e30)"
             id="g3097"><path
               fill="#07215f"
               d="m 793.69922,102.10156 30.9375,62.52735 4.82422,-3.35157 c 4.85547,-3.375 34.07812,-26.43359 46.60156,-36.77734 l 6.72656,-5.55078 41.38281,-20.472658 11.34375,-11.667968 11.33985,-11.664063 32.99219,-16.320312 -1.80469,-3.648438 33.10543,-16.378906 -3.6093,-7.292969 -34.32816,16.984375 -1.20313,-2.429687 -27.8789,13.792968 -17.91797,1.296876 -17.92188,1.300781 -39.22656,19.40625 -16.47656,4.398437 c -9.0625,2.417969 -23.80078,6.25 -32.75391,8.515625 -8.94922,2.269531 -18.49219,4.84375 -21.20312,5.726559 z m 3.65625,1.21875 4.33203,-1.26172 c 9.9375,-2.90234 56.03125,-14.660152 58.32812,-14.882809 l 2.48829,-0.238281 9.47265,19.14063 -2.45312,1.98437 c -1.35157,1.08984 -13.21485,9.01172 -26.36328,17.60938 -13.14844,8.59765 -24.46875,15.91015 -25.15625,16.24999 l -1.2461,0.61719 z m 69.30078,-17.246091 41.6875,-20.625 10.82422,21.882812 -41.6836,20.621099 z m 44.74219,-20.621094 0.95703,-0.476563 c 1.60156,-0.789062 25.76562,-2.09375 28.22656,-1.519531 l 2.29688,0.535157 1.1875,3.324218 1.18359,3.328125 -8.17188,8.160157 c -4.49218,4.488281 -9.40625,8.789062 -10.91406,9.558593 l -2.73828,1.402344 -12.03125,-24.3125 z m 33.60937,-3.011719 26.97656,-13.347656 3.60547,7.296875 -26.97265,13.34375 z m 30.62891,-12.128906 29.42578,-14.558594 1.2031,2.433594 -29.42576,14.558594 z m -102.52735,58.05469 1.14454,2.3125 -19.55079,13.69531 c -10.7539,7.53516 -21.61718,15.07812 -24.14062,16.76172 -2.52734,1.67969 -5.96484,4.09765 -7.64844,5.36328 l -3.05469,2.30859 -1.68359,-3.40234 24.42188,-16.19141 c 13.43359,-8.90625 25.79296,-17.23828 27.46484,-18.51953 z m 6.17579,3.23437 41.6875,-20.624998 1.20312,2.433594 -41.6875,20.621094 z m -3.95313,3.41797 0.94141,0.31641 c 1.79297,0.59765 0.32031,1.85937 -22.83985,19.58203 -12.78906,9.78125 -24.6289,18.82422 -26.30859,20.09375 l -3.05469,2.30469 -1.09375,-2.21094 10.32031,-7.67578 c 5.67579,-4.22266 14.77344,-11.16016 20.21875,-15.42578 5.44922,-4.26172 12.58594,-9.82422 15.85938,-12.36719 z m 0,0"
               fill-opacity="1"
               fill-rule="nonzero"
               id="path3095"
               inkscape:export-filename="path3095.svg"
               inkscape:export-xdpi="96"
               inkscape:export-ydpi="96" /></g></g></g><g
         clip-path="url(#82f001bf1e)"
         id="g3109"><g
           clip-path="url(#59235d3654)"
           id="g3107"><g
             clip-path="url(#6929c18770)"
             id="g3105"><path
               fill="#fefefe"
               d="M 245.58203,356.0625 94.691406,430.71484 c -9.980468,-3.3789 -19.957031,-6.76562 -29.933594,-10.14843 l -16.234374,8.03125 10.082031,20.38281 c -2.832031,1.59765 -9.109375,0.33594 -9.046875,4.33984 0.05469,2.8086 1.636718,5.21485 2.773437,7.67188 -5.917969,0.55468 -12.296875,-1.00391 -17.890625,1.0039 -8.042968,2.6875 -16.554687,3.86328 -24.914062,5.00391 l 32.667968,66.03125 c 5.957032,-3.4375 10.871094,-8.67578 16.464844,-12.41406 4.417969,1.40625 7.542969,-0.21485 9.613282,-4.30078 2.375,-2.6211 4.28125,-6.06641 7.789062,-7.375 1.097656,0.94921 1.519531,6.10546 3.460938,3.53515 2.300781,-2.47265 4.503906,-5.03125 6.769531,-7.53515 l 6.152343,12.4375 c -2.980468,1.33984 -8.859374,1.89062 -10.054687,3.71875 2.648437,2.90625 6.703125,6.28906 -0.02734,5.99218 -5.515625,0.76172 -11.074219,0.39063 -16.59375,0.28907 -0.621093,4.23437 -4.457031,4.65625 -8.082031,5.32031 -4.585938,1.22656 -9.351562,2.0039 -13.734375,3.88281 l 17.472656,35.32031 c 6.261719,-5.87109 12.789063,-11.86718 20.1875,-16.13672 3.367188,-4.60937 6.730469,-9.21484 10.097657,-13.82031 3.003906,3.1875 5.546874,3.13672 7.628906,-0.80078 1.011712,-1.63281 3.320312,-3.56641 4.175782,-0.76953 2.79687,4.64062 4.99609,9.60937 7.44921,14.43359 4.46485,-2.60937 10.1875,-4.2539 13.88672,-7.4414 1.64844,-6.33985 2.99219,-12.84766 4.82031,-19.08594 5.92188,-6.33594 14.80469,-8.44141 22.14844,-12.73828 96.24219,-47.62891 192.48438,-95.25781 288.72266,-142.88672 l -44.9336,-90.82422 -150.01953,74.22656 z m -174.640624,117.87109 5.238282,10.58594 c -3.746094,0.66797 -7.492188,1.33203 -11.242188,1.95313 2.292969,2.58593 1.789062,4.59375 -1.683594,4.94921 -4.84375,1.11329 -10.050781,1.46485 -14.742187,2.32032 2.582031,3.13281 1.648437,4.22656 -2.675781,4.86718 -5.609376,1.79297 -11.367188,2.9961 -17.132813,4.08594 -3.410156,-3.69922 3.132813,-5.55859 5.226563,-8.24219 4.214843,-4.99609 11.402343,-5.65234 16.144531,-9.65625 2.695312,-3.25781 5.394531,-6.51562 8.089843,-9.77734 2.464844,1.45313 4.757813,6.66797 7.738282,3.48047 1.867187,-1.55469 3.082031,-3.66797 4.550781,-5.55078 z m 0,0"
               fill-opacity="1"
               fill-rule="nonzero"
               id="path3103" /></g></g></g><g
         clip-path="url(#df6c145596)"
         id="g3117"><g
           clip-path="url(#dd4fb87362)"
           id="g3115"><g
             clip-path="url(#7caace651b)"
             id="g3113"><path
               fill="#07215f"
               d="m 47.660156,428.29297 10.011719,20.23437 -4.230469,1.08985 -4.230468,1.08203 -0.265626,2.125 c -0.144531,1.16797 0.324219,3.33203 1.042969,4.80469 l 1.304688,2.68359 -7.558594,0.0469 -7.558594,0.043 -2.363281,1.16797 c -2.015625,0.9961 -16.894531,3.96094 -23.277344,4.64063 l -2.007812,0.21093 33.390625,67.48438 1.523437,-0.77734 c 0.835938,-0.42969 4.59375,-3.27344 8.351563,-6.32422 l 6.828125,-5.55078 3.085937,0.2539 3.082031,0.25 4.304688,-5.38281 c 2.367188,-2.96094 4.839844,-5.64844 5.496094,-5.97266 l 1.191406,-0.58984 1.167969,2.35937 c 1.394531,2.82422 1.207031,2.89063 5.652343,-2.08593 l 3.554688,-3.98047 5.371094,10.85547 -5.355469,1.64453 -5.355469,1.64844 2.414063,2.78125 2.410156,2.77734 -3.34375,0.60547 c -1.835937,0.33203 -6.394531,0.52734 -10.125,0.43359 l -6.78125,-0.17187 -0.917969,1.95312 -0.914062,1.96094 -8.695313,2.09375 c -4.78125,1.15234 -9.390625,2.42969 -10.238281,2.83594 l -1.542969,0.74218 18.171875,36.72266 2.339844,-2.21094 c 5.617188,-5.32031 13.238281,-11.53515 15.574219,-12.70703 l 2.53125,-1.26953 10.203125,-13.96875 2.214844,1.46484 2.210937,1.46094 2.535156,-3.02344 c 1.394529,-1.66406 2.789059,-3.14843 3.093749,-3.29687 0.3086,-0.15234 2.39453,3.44141 4.64063,7.98047 l 4.08593,8.25781 14.63282,-7.24219 2.42578,-9.85156 2.42578,-9.84766 2.10156,-1.91406 2.10547,-1.91406 153.55859,-75.99219 153.55469,-75.99609 -45.51562,-92 -301.269535,149.05469 -14.96875,-5.07813 -14.964844,-5.07422 -17.109375,8.46485 z m 5.429688,1.71875 14.152344,-7.00391 11.339843,3.70703 c 6.238281,2.03516 11.507813,4.05469 11.71875,4.47657 0.210938,0.42578 -0.605469,1.26171 -1.8125,1.85937 l -2.195312,1.08594 -16.085938,-5.25781 -14.203125,7.02734 z m 4.082031,8.2539 13.085937,-6.47265 12.199219,4.09765 c 6.707031,2.25782 12.355469,4.41797 12.546875,4.80469 l 0.347656,0.70703 -4.058593,1.82422 c -4.207031,1.89063 -14.511719,5.4336 -22.535157,7.75 l -4.636718,1.33594 z m -43.730469,31.91407 1.539063,-0.74219 c 0.847656,-0.40625 4.902343,-1.46094 9.015625,-2.33203 l 7.476562,-1.58203 1.289063,0.77734 1.292969,0.77344 3.707031,7.89844 3.703125,7.90234 -0.402344,1.11328 -0.398438,1.11328 -8.367187,-16.91015 -2.449219,1.21484 8.753906,17.69141 -2.453124,1.21484 -9.40625,-19.01172 -0.867188,1.33594 -0.863281,1.33203 9.265625,18.73437 -3.675782,1.82032 -11.089843,-22.41016 -2.636719,1.30469 2.113281,3.72656 c 1.164063,2.05078 3.699219,7.07031 5.636719,11.16016 l 3.523438,7.43359 -2.453126,1.21094 z m 38.347656,-16.03516 1.539063,-0.76172 c 0.847656,-0.41797 2.574219,-0.87109 3.835937,-1.00781 l 2.289063,-0.24219 9.089844,18.36719 -1.585938,1.67578 c -0.871093,0.92188 -2.300781,2.03125 -3.179687,2.46484 l -1.597656,0.78907 -5.199219,-10.64063 z m 193.324218,-95.64844 123.83203,-61.26562 7.58594,15.33203 25.75,-12.73828 16.33984,33.02734 -25.75,12.73828 9.33985,18.8711 -123.83203,61.26562 -1.75391,-3.53515 121.38281,-60.05469 -1.16797,-2.35938 -121.3789,60.05469 z m -209.089842,104.875 9.125,-0.0664 9.121093,-0.0664 3.402344,6.87109 -5.582031,5.80079 c -3.066406,3.19531 -5.832032,5.92968 -6.144532,6.08593 -0.3125,0.15235 -2.671874,-3.97265 -5.246093,-9.17187 z m 31.433593,-8.1875 c 0.835938,-0.42578 12.457031,-4.71093 25.8125,-9.52734 l 24.289059,-8.75391 -1.14062,1.60547 c -1.24609,1.75391 -22.38672,18.625 -33.01172,26.34375 -3.664062,2.66406 -7.386719,5.19922 -8.273438,5.64063 l -1.613281,0.79687 -7.589843,-15.33203 z m 66.343749,-25.46484 87.08203,-43.08203 14.58985,29.48437 -152.031254,75.21875 -6.859375,-13.85937 28.609379,-23.87891 z m -75.523436,46.23828 5.203125,4.70313 1.683593,-0.83204 c 0.925782,-0.45703 2.480469,-1.91015 3.453126,-3.22656 l 1.765624,-2.39453 4.84375,9.79297 -3.15625,0.5625 c -1.734374,0.30469 -4.265624,0.74609 -5.621093,0.97266 l -2.46875,0.40625 1.886719,3.8164 -1.578126,0.67188 c -0.863281,0.37109 -4.960937,1.11718 -9.097656,1.65625 l -7.527344,0.98437 0.257813,0.88281 c 0.144531,0.48829 0.582031,1.3086 0.976563,1.82813 l 0.714843,0.94531 -5.019531,1.5625 c -2.761719,0.86328 -7.363281,2.02735 -10.230469,2.59375 l -5.214843,1.03125 -0.894532,-1.80469 10.234375,-8.61718 5.597657,-2.57032 5.59375,-2.57421 4.296874,-5.19532 z m -27.324219,29.60547 2.066406,-1.01953 c 1.136719,-0.5625 5.703125,-1.7461 10.148438,-2.62891 L 51.25,500.3125 l 7.429688,15.02344 -2.449219,1.21484 -6.421875,-12.97656 -2.449219,1.21484 7,14.15235 -2.449219,1.21484 -8.171875,-16.51563 -2.453125,1.21485 8.753906,17.6914 -3.675781,1.82032 -8.753906,-17.69141 -2.640625,1.30469 5.070312,9.24219 5.070313,9.23828 -3.066406,1.51953 -11.085938,-22.41406 z m 21.28125,-9.42578 3.695313,-1.01563 c 2.03125,-0.5625 5.484374,-1.21484 7.675781,-1.44922 l 3.984375,-0.43359 5.726562,11.57813 -1.804687,1.74609 c -0.996094,0.96094 -3.503907,3.52344 -5.578125,5.69531 l -3.769532,3.94531 z m 17.632813,-8.16406 3.582031,-0.16407 3.578125,-0.16797 7.265625,14.67969 -2.40625,2.07813 c -1.324219,1.14062 -2.816407,2.28906 -3.320313,2.54687 l -0.910156,0.47266 -8.558594,-17.30078 0.386719,-1.07422 z m -23.027344,49.69921 9.265625,-2.08984 9.269531,-2.08594 5.308594,10.4961 5.304687,10.5 -4.683593,-8.32813 -4.675782,-8.33203 -2.347656,1.16406 8.753906,17.69141 -2.453125,1.21484 -9.335937,-18.875 -2.453125,1.21485 9.921875,20.05078 -3.679688,1.82031 -10.503906,-21.23047 -2.453125,1.21094 11.089844,22.41016 -2.453125,1.21484 -13.878906,-28.04688 z M 88.09375,521.49609 c 0.5,-0.26172 1.246094,-0.40234 2.238281,-0.5625 l 2.929688,-0.48437 6.296875,12.73437 -1.765625,2.39453 c -0.972657,1.31641 -2.335938,2.67579 -3.027344,3.01563 l -1.261719,0.625 -3.339844,-8.10156 c -2.859374,-6.9336 -3.570312,-8.82813 -2.070312,-9.6211 z m -16.679688,9.55078 c 0.84375,-0.41796 4.738282,-0.875 8.660157,-1.0039 l 7.136719,-0.23047 3.722656,7.52734 -5.386719,6.44141 c -2.964844,3.54687 -5.601563,6.54687 -5.855469,6.67578 -0.257812,0.125 -2.570312,-4.01562 -5.136718,-9.20703 l -4.667969,-9.4375 1.527343,-0.76953 z M 281.29687,431.625 l 123.83204,-61.26563 2.33203,4.71875 25.75,-12.73828 2.33203,4.71875 -149.57813,74.00391 z m -30.09765,16.28516 4.11328,8.3164 -59.81641,29.47656 c -32.89843,16.21485 -59.36718,29.00391 -58.8164,28.42188 0.55078,-0.58203 7.44531,-6.08203 15.32422,-12.21484 L 166.32422,490.75 208.76172,469.33203 Z M 125.3125,523.14062 c 5.28906,-2.54687 3.70312,2.83594 -0.62891,17.16797 l -1.95703,6.47657 -10.75,5.3164 -6.98047,-14.10937 2.48047,-1.92969 c 9.01563,-7.01563 14.66407,-11.39844 17.83594,-12.92188 z m 0,0"
               fill-opacity="1"
               fill-rule="nonzero"
               id="path3111" /></g></g></g><g
         clip-path="url(#b2c77b422a)"
         id="g3125"><g
           clip-path="url(#3dd4f618de)"
           id="g3123"><g
             clip-path="url(#96426bdd0f)"
             id="g3121"><path
               fill="#fefefe"
               d="m 658.32422,168.28516 c -19.25,4.11328 -38.65625,7.78125 -57.81641,12.16015 L 441.35156,259.1875 c 0.8086,3.45312 6.24219,7.51562 1.74219,10.26953 -2.12891,2.13281 -4.03516,4.59375 -6.625,6.20703 -0.0312,2.66406 5.375,8.00781 0.94141,8.50391 -4.3711,1.05078 -8.86719,2.8164 -13.16797,3.45703 -3.39453,-3.71484 -7.87891,0.13672 -11.91797,0.90234 -2.75,2.96875 -6.35156,-2.72656 -7.91016,0.58985 12.17188,24.16406 23.56641,48.74609 36.59375,72.45703 2.73047,1.11328 5.67578,-4.25391 8.37891,-5.86328 4.78125,-4.33203 8.82422,-9.38672 12.5664,-14.54688 3.94922,-2.57812 7.53907,-4.125 8.55079,1.62891 3.6289,1.21094 8.21484,1.1875 11.61718,-1.20313 2.26563,2.66407 2.60157,10.79688 7.19922,6.84375 l 160.2461,-79.28125 c 14.36328,-13.3789 28.86328,-26.60547 43.3125,-39.89062 -9.94922,-20.65235 -19.90235,-41.30469 -29.85157,-61.95703 l -4.6914,0.98047 z m -213.06641,123.48828 7.56641,15.29297 c -6.32422,2.87109 -13.8125,4.83203 -20.5625,2.70312 -2.57422,0.53906 -8.90625,6.41797 -7.26563,0.97656 -0.33203,-3.99218 6.65625,-2.82031 5.95703,-7.50781 0.31641,-5.50781 6.61719,-6.64062 10.2461,-9.72656 0.97265,-0.0781 3.73437,-3.50781 4.05859,-1.73828 z m 11.3125,22.86328 7.50781,15.17969 c -4.85546,1.6289 -9.89453,2.61718 -14.83984,3.93359 -1.4375,-4.17188 -7,0.82422 -10.31641,0.83203 -4.03515,0.24219 -5.91406,-3.22266 -0.60156,-4.02734 4.5586,-0.46094 3.87891,-4.80469 5.85156,-7.38672 4.125,-2.94531 8.29297,-5.86328 12.01172,-9.31641 z m 0,0"
               fill-opacity="1"
               fill-rule="nonzero"
               id="path3119" /></g></g></g><g
         clip-path="url(#40a02df1bb)"
         id="g3133"><g
           clip-path="url(#68c1bbd7c6)"
           id="g3131"><g
             clip-path="url(#be41173922)"
             id="g3129"><path
               fill="#07215f"
               d="m 440.43359,258.89062 4.02344,8.125 -3.25,3.46094 c -1.78516,1.90235 -3.77344,3.78516 -4.41406,4.1875 l -1.16797,0.72656 1.46094,3.87891 1.45703,3.88281 -6.96485,1.94922 -6.96875,1.95313 -1.69531,-1.06641 -1.69922,-1.0625 -11.70312,3.80469 -2.21875,-0.95313 -2.22266,-0.95312 -1.44531,2.25781 17.73047,35.83984 c 9.7539,19.70704 18.35937,36.40625 19.13281,37.10547 l 1.39844,1.26953 6.5664,-5.84375 c 3.61329,-3.21093 8.19532,-8.0625 10.17969,-10.77343 l 3.60547,-4.92578 5.61328,-2.77344 2.29297,4.64062 3.64844,0.51172 c 2.0039,0.28125 4.625,0.0234 5.82422,-0.57031 l 2.17578,-1.07813 4.13672,8.35938 164.01172,-81.14453 5.08203,-4.73438 c 2.79687,-2.60547 12.63672,-11.66797 21.875,-20.14453 l 16.78906,-15.41406 -15.14063,-31.43359 -15.14453,-31.42969 -5.21093,1.08594 c -2.86719,0.59375 -16.92969,3.51171 -31.25391,6.47656 L 600.89453,179.5 440.42578,258.89453 Z m 161.67188,-77.33203 2.55469,-0.23437 c 1.40625,-0.12891 7.82421,-1.37891 14.26953,-2.77735 l 11.71875,-2.53515 19.84375,38.41406 -25.8086,12.76953 z m -139.64453,69.40625 137.3164,-67.9375 41.95313,84.78907 -137.32031,67.9414 -2.89844,-5.86328 8.0039,-4.40234 8.00391,-4.39844 -0.23437,-1.74219 -0.23047,-1.74219 -17.3711,8.59375 -28.95312,-58.51562 14.71484,-7.28125 -1.77344,-3.58203 -14.71484,7.27734 z m -20.53125,22.05078 4.41406,-2.18359 34.26953,69.26563 -4.41406,2.18359 -2.17969,-0.70703 -2.18359,-0.70313 -31.42969,-63.53125 0.76172,-2.16406 z m -32.77735,18.12891 6.09375,-1.48828 6.09375,-1.49609 6.33985,12.8125 -1.30469,1.22265 c -0.71484,0.67578 -3.20313,2.58594 -5.53125,4.2461 l -4.23047,3.01953 -4.0625,-8.21485 c -2.23437,-4.51953 -3.91406,-8.64062 -3.73047,-9.15625 l 0.33203,-0.9414 z m 16.08203,-1.28125 4.98829,-1.48047 c 9.83984,-2.91797 13.22265,-2.41015 9.07031,1.36719 -1.01172,0.92187 -3.73047,3.05469 -6.04688,4.74219 l -4.20312,3.07031 z m 19.40625,2.20703 7.25391,14.66406 -2.19922,0.95313 c -3.9414,1.71094 -11.89453,2.83984 -14.72656,2.08984 l -2.76953,-0.73047 -6.69531,3.3125 0.16406,-1.5664 0.16797,-1.57031 4.66406,-2.3086 1.12109,-3.57031 1.11719,-3.57031 5.95313,-3.85157 z m -23.45703,23.54297 4.20313,-1.15234 c 2.30859,-0.62891 4.95703,-1.52344 5.88672,-1.98047 l 1.68359,-0.83594 6.5,13.13672 -0.90625,0.48437 c -0.49609,0.26563 -2.74219,1.97266 -4.98828,3.79688 l -4.08203,3.31641 z m 15.91797,-1.75781 2.44922,-0.44922 c 1.34766,-0.24609 4.70313,-1.11719 7.45703,-1.93359 2.75391,-0.81641 5.51172,-1.17969 6.12891,-0.80469 l 1.125,0.68359 -4.01172,3.53906 c -2.20703,1.94922 -5.25,4.16407 -6.76563,4.91797 l -2.7539,1.375 -3.625,-7.32422 z M 654.0625,215.63281 678.58594,203.5 l 7.03515,14.21875 -9.86328,9.40625 c -5.42578,5.17578 -10.13281,9.54297 -10.46094,9.70703 -0.32812,0.16016 -2.99218,-4.54297 -5.91406,-10.45312 z m -198.10938,99.30078 7.16797,14.49219 -0.98047,0.32813 c -0.54296,0.17968 -3.58203,0.97656 -6.75781,1.76953 l -5.77344,1.4414 -1.00781,-2.03906 -5.29687,1.61719 -5.29297,1.61719 -1.23438,-0.75 -1.23047,-0.7461 7.19922,-3.5625 0.62891,-2.5039 0.62891,-2.5 4.11328,-2.94532 c 2.26172,-1.62109 4.94922,-3.68359 5.97265,-4.58203 z m -24.62109,24.27344 2.30078,-1.13672 c 1.26172,-0.625 4.1875,-1.65625 6.5,-2.28515 l 4.19922,-1.15235 6.87109,13.89063 -0.65625,0.98828 c -0.35937,0.53906 -2.8164,2.52344 -5.45312,4.40234 l -4.79297,3.41797 z m 16.97266,-2.71094 5.625,-1.73828 c 3.09765,-0.95703 7.01172,-1.71484 8.70703,-1.6875 l 3.07422,0.0508 -2.67188,2.3086 c -1.46875,1.26953 -4.58203,3.65234 -6.91797,5.29687 l -4.24218,2.9961 z m 51.51172,-19.27734 1.17968,2.38672 131.19141,-64.90625 -1.18359,-2.38672 z m 188.8125,-93.41797 2.23437,4.51953 -2.40234,2.08203 c -1.32032,1.14453 -6.0586,5.53125 -10.53125,9.7461 l -8.13282,7.66406 -1.16406,-4.29688 9.10938,-9.33593 c 5.01172,-5.13672 9.51172,-9.57422 10,-9.85938 z m -170.51172,90.30859 3.54687,7.16407 115.25,-57.01953 -3.54687,-7.16407 z m 0,0"
               fill-opacity="1"
               fill-rule="nonzero"
               id="path3127" /></g></g></g><g
         clip-path="url(#9007f056df)"
         id="g3141"><g
           clip-path="url(#2cb977934c)"
           id="g3139"><g
             clip-path="url(#235dd93ede)"
             id="g3137"><path
               fill="#fefefe"
               d="m 418.72656,270.36328 -22.07031,10.92188 44.91797,90.78906 44.14062,-21.83594 -44.92187,-90.79297 z m 0,0"
               fill-opacity="1"
               fill-rule="nonzero"
               id="path3135" /></g></g></g><g
         clip-path="url(#c1495b0879)"
         id="g3149"><g
           clip-path="url(#53cccd44cf)"
           id="g3147"><g
             clip-path="url(#cd853663a2)"
             id="g3145"><path
               fill="#07215f"
               d="m 395.75391,281.00391 45.49609,91.95703 45.36328,-22.44532 -45.49609,-91.95703 z m 11.08984,16.24609 40.46094,-20.01563 16.125,32.58985 -40.46094,20.01953 z m 29.94922,60.52734 40.45703,-20.01562 5.76172,11.64062 -40.46094,20.01563 z m 0,0"
               fill-opacity="1"
               fill-rule="nonzero"
               id="path3143" /></g></g></g></g></g></svg>
